<?xml version="1.0" encoding="UTF-8"?>
<svg xmlns="http://www.w3.org/2000/svg" xmlns:xlink="http://www.w3.org/1999/xlink"
     width="800" height="200" viewBox="0 -200 800 200">
<defs>
</defs>
<path d="M40.0,-20.0 A20.0,20.0,0,0,0,20.0,-2.4492935982947065e-15" stroke="#800000" stroke-width="4" fill="none" />
<path d="M20.0,-40.0 A20.0,20.0,0,0,1,-3.673940397442059e-15,-20.0" stroke="#800000" stroke-width="4" fill="none" />
<path d="M40.0,-60.0 A20.0,20.0,0,0,0,20.0,-40.0" stroke="#800000" stroke-width="4" fill="none" />
<path d="M20.0,-80.0 A20.0,20.0,0,0,1,-3.673940397442059e-15,-60.0" stroke="#800000" stroke-width="4" fill="none" />
<path d="M20.0,-120.0 A20.0,20.0,0,0,0,39.99999999999999,-100.0" stroke="#800000" stroke-width="4" fill="none" />
<path d="M20.0,-80.0 A20.0,20.0,0,0,0,1.2246467991473533e-15,-100.0" stroke="#800000" stroke-width="4" fill="none" />
<path d="M40.0,-140.0 A20.0,20.0,0,0,0,20.0,-120.0" stroke="#800000" stroke-width="4" fill="none" />
<path d="M20.0,-160.0 A20.0,20.0,0,0,1,-3.673940397442059e-15,-140.0" stroke="#800000" stroke-width="4" fill="none" />
<path d="M40.0,-180.0 A20.0,20.0,0,0,0,20.0,-160.0" stroke="#800000" stroke-width="4" fill="none" />
<path d="M20.0,-200.0 A20.0,20.0,0,0,1,-3.673940397442059e-15,-180.0" stroke="#800000" stroke-width="4" fill="none" />
<path d="M80.0,-20.0 A20.0,20.0,0,0,0,60.0,-2.4492935982947065e-15" stroke="#800000" stroke-width="4" fill="none" />
<path d="M60.0,-40.0 A20.0,20.0,0,0,1,39.99999999999999,-20.0" stroke="#800000" stroke-width="4" fill="none" />
<path d="M80.0,-60.0 A20.0,20.0,0,0,0,60.0,-40.0" stroke="#800000" stroke-width="4" fill="none" />
<path d="M60.0,-80.0 A20.0,20.0,0,0,1,39.99999999999999,-60.0" stroke="#800000" stroke-width="4" fill="none" />
<path d="M80.0,-100.0 A20.0,20.0,0,0,0,60.0,-80.0" stroke="#800000" stroke-width="4" fill="none" />
<path d="M60.0,-120.0 A20.0,20.0,0,0,1,39.99999999999999,-100.0" stroke="#800000" stroke-width="4" fill="none" />
<path d="M60.0,-160.0 A20.0,20.0,0,0,0,80.0,-140.0" stroke="#800000" stroke-width="4" fill="none" />
<path d="M60.0,-120.0 A20.0,20.0,0,0,0,40.0,-140.0" stroke="#800000" stroke-width="4" fill="none" />
<path d="M80.0,-180.0 A20.0,20.0,0,0,0,60.0,-160.0" stroke="#800000" stroke-width="4" fill="none" />
<path d="M60.0,-200.0 A20.0,20.0,0,0,1,39.99999999999999,-180.0" stroke="#800000" stroke-width="4" fill="none" />
<path d="M120.0,-20.0 A20.0,20.0,0,0,0,100.0,-2.4492935982947065e-15" stroke="#800000" stroke-width="4" fill="none" />
<path d="M100.0,-40.0 A20.0,20.0,0,0,1,80.0,-20.0" stroke="#800000" stroke-width="4" fill="none" />
<path d="M120.0,-60.0 A20.0,20.0,0,0,0,100.0,-40.0" stroke="#800000" stroke-width="4" fill="none" />
<path d="M100.0,-80.0 A20.0,20.0,0,0,1,80.0,-60.0" stroke="#800000" stroke-width="4" fill="none" />
<path d="M120.0,-100.0 A20.0,20.0,0,0,0,100.0,-80.0" stroke="#800000" stroke-width="4" fill="none" />
<path d="M100.0,-120.0 A20.0,20.0,0,0,1,80.0,-100.0" stroke="#800000" stroke-width="4" fill="none" />
<path d="M120.0,-140.0 A20.0,20.0,0,0,0,100.0,-120.0" stroke="#800000" stroke-width="4" fill="none" />
<path d="M100.0,-160.0 A20.0,20.0,0,0,1,80.0,-140.0" stroke="#800000" stroke-width="4" fill="none" />
<path d="M120.0,-180.0 A20.0,20.0,0,0,0,100.0,-160.0" stroke="#800000" stroke-width="4" fill="none" />
<path d="M100.0,-200.0 A20.0,20.0,0,0,1,80.0,-180.0" stroke="#800000" stroke-width="4" fill="none" />
<path d="M160.0,-20.0 A20.0,20.0,0,0,0,140.0,-2.4492935982947065e-15" stroke="#800000" stroke-width="4" fill="none" />
<path d="M140.0,-40.0 A20.0,20.0,0,0,1,120.0,-20.0" stroke="#800000" stroke-width="4" fill="none" />
<path d="M140.0,-80.0 A20.0,20.0,0,0,0,160.0,-60.0" stroke="#800000" stroke-width="4" fill="none" />
<path d="M140.0,-40.0 A20.0,20.0,0,0,0,120.0,-60.0" stroke="#800000" stroke-width="4" fill="none" />
<path d="M160.0,-100.0 A20.0,20.0,0,0,0,140.0,-80.0" stroke="#800000" stroke-width="4" fill="none" />
<path d="M140.0,-120.0 A20.0,20.0,0,0,1,120.0,-100.0" stroke="#800000" stroke-width="4" fill="none" />
<path d="M140.0,-160.0 A20.0,20.0,0,0,0,160.0,-140.0" stroke="#800000" stroke-width="4" fill="none" />
<path d="M140.0,-120.0 A20.0,20.0,0,0,0,120.0,-140.0" stroke="#800000" stroke-width="4" fill="none" />
<path d="M140.0,-200.0 A20.0,20.0,0,0,0,160.0,-180.0" stroke="#800000" stroke-width="4" fill="none" />
<path d="M140.0,-160.0 A20.0,20.0,0,0,0,120.0,-180.0" stroke="#800000" stroke-width="4" fill="none" />
<path d="M200.0,-20.0 A20.0,20.0,0,0,0,180.0,-2.4492935982947065e-15" stroke="#800000" stroke-width="4" fill="none" />
<path d="M180.0,-40.0 A20.0,20.0,0,0,1,160.0,-20.0" stroke="#800000" stroke-width="4" fill="none" />
<path d="M200.0,-60.0 A20.0,20.0,0,0,0,180.0,-40.0" stroke="#800000" stroke-width="4" fill="none" />
<path d="M180.0,-80.0 A20.0,20.0,0,0,1,160.0,-60.0" stroke="#800000" stroke-width="4" fill="none" />
<path d="M180.0,-120.0 A20.0,20.0,0,0,0,200.0,-100.0" stroke="#800000" stroke-width="4" fill="none" />
<path d="M180.0,-80.0 A20.0,20.0,0,0,0,160.0,-100.0" stroke="#800000" stroke-width="4" fill="none" />
<path d="M180.0,-160.0 A20.0,20.0,0,0,0,200.0,-140.0" stroke="#800000" stroke-width="4" fill="none" />
<path d="M180.0,-120.0 A20.0,20.0,0,0,0,160.0,-140.0" stroke="#800000" stroke-width="4" fill="none" />
<path d="M180.0,-200.0 A20.0,20.0,0,0,0,200.0,-180.0" stroke="#800000" stroke-width="4" fill="none" />
<path d="M180.0,-160.0 A20.0,20.0,0,0,0,160.0,-180.0" stroke="#800000" stroke-width="4" fill="none" />
<path d="M240.0,-20.0 A20.0,20.0,0,0,0,220.0,-2.4492935982947065e-15" stroke="#800000" stroke-width="4" fill="none" />
<path d="M220.0,-40.0 A20.0,20.0,0,0,1,200.0,-20.0" stroke="#800000" stroke-width="4" fill="none" />
<path d="M240.0,-60.0 A20.0,20.0,0,0,0,220.0,-40.0" stroke="#800000" stroke-width="4" fill="none" />
<path d="M220.0,-80.0 A20.0,20.0,0,0,1,200.0,-60.0" stroke="#800000" stroke-width="4" fill="none" />
<path d="M220.0,-120.0 A20.0,20.0,0,0,0,240.0,-100.0" stroke="#800000" stroke-width="4" fill="none" />
<path d="M220.0,-80.0 A20.0,20.0,0,0,0,200.0,-100.0" stroke="#800000" stroke-width="4" fill="none" />
<path d="M240.0,-140.0 A20.0,20.0,0,0,0,220.0,-120.0" stroke="#800000" stroke-width="4" fill="none" />
<path d="M220.0,-160.0 A20.0,20.0,0,0,1,200.0,-140.0" stroke="#800000" stroke-width="4" fill="none" />
<path d="M240.0,-180.0 A20.0,20.0,0,0,0,220.0,-160.0" stroke="#800000" stroke-width="4" fill="none" />
<path d="M220.0,-200.0 A20.0,20.0,0,0,1,200.0,-180.0" stroke="#800000" stroke-width="4" fill="none" />
<path d="M260.0,-40.0 A20.0,20.0,0,0,0,280.0,-20.0" stroke="#800000" stroke-width="4" fill="none" />
<path d="M260.0,-0.0 A20.0,20.0,0,0,0,240.0,-20.0" stroke="#800000" stroke-width="4" fill="none" />
<path d="M280.0,-60.0 A20.0,20.0,0,0,0,260.0,-40.0" stroke="#800000" stroke-width="4" fill="none" />
<path d="M260.0,-80.0 A20.0,20.0,0,0,1,240.0,-60.0" stroke="#800000" stroke-width="4" fill="none" />
<path d="M260.0,-120.0 A20.0,20.0,0,0,0,280.0,-100.0" stroke="#800000" stroke-width="4" fill="none" />
<path d="M260.0,-80.0 A20.0,20.0,0,0,0,240.0,-100.0" stroke="#800000" stroke-width="4" fill="none" />
<path d="M260.0,-160.0 A20.0,20.0,0,0,0,280.0,-140.0" stroke="#800000" stroke-width="4" fill="none" />
<path d="M260.0,-120.0 A20.0,20.0,0,0,0,240.0,-140.0" stroke="#800000" stroke-width="4" fill="none" />
<path d="M260.0,-200.0 A20.0,20.0,0,0,0,280.0,-180.0" stroke="#800000" stroke-width="4" fill="none" />
<path d="M260.0,-160.0 A20.0,20.0,0,0,0,240.0,-180.0" stroke="#800000" stroke-width="4" fill="none" />
<path d="M320.0,-20.0 A20.0,20.0,0,0,0,300.0,-2.4492935982947065e-15" stroke="#800000" stroke-width="4" fill="none" />
<path d="M300.0,-40.0 A20.0,20.0,0,0,1,280.0,-20.0" stroke="#800000" stroke-width="4" fill="none" />
<path d="M300.0,-80.0 A20.0,20.0,0,0,0,320.0,-60.0" stroke="#800000" stroke-width="4" fill="none" />
<path d="M300.0,-40.0 A20.0,20.0,0,0,0,280.0,-60.0" stroke="#800000" stroke-width="4" fill="none" />
<path d="M320.0,-100.0 A20.0,20.0,0,0,0,300.0,-80.0" stroke="#800000" stroke-width="4" fill="none" />
<path d="M300.0,-120.0 A20.0,20.0,0,0,1,280.0,-100.0" stroke="#800000" stroke-width="4" fill="none" />
<path d="M300.0,-160.0 A20.0,20.0,0,0,0,320.0,-140.0" stroke="#800000" stroke-width="4" fill="none" />
<path d="M300.0,-120.0 A20.0,20.0,0,0,0,280.0,-140.0" stroke="#800000" stroke-width="4" fill="none" />
<path d="M320.0,-180.0 A20.0,20.0,0,0,0,300.0,-160.0" stroke="#800000" stroke-width="4" fill="none" />
<path d="M300.0,-200.0 A20.0,20.0,0,0,1,280.0,-180.0" stroke="#800000" stroke-width="4" fill="none" />
<path d="M340.0,-40.0 A20.0,20.0,0,0,0,360.0,-20.0" stroke="#800000" stroke-width="4" fill="none" />
<path d="M340.0,-0.0 A20.0,20.0,0,0,0,320.0,-20.0" stroke="#800000" stroke-width="4" fill="none" />
<path d="M340.0,-80.0 A20.0,20.0,0,0,0,360.0,-60.0" stroke="#800000" stroke-width="4" fill="none" />
<path d="M340.0,-40.0 A20.0,20.0,0,0,0,320.0,-60.0" stroke="#800000" stroke-width="4" fill="none" />
<path d="M360.0,-100.0 A20.0,20.0,0,0,0,340.0,-80.0" stroke="#800000" stroke-width="4" fill="none" />
<path d="M340.0,-120.0 A20.0,20.0,0,0,1,320.0,-100.0" stroke="#800000" stroke-width="4" fill="none" />
<path d="M360.0,-140.0 A20.0,20.0,0,0,0,340.0,-120.0" stroke="#800000" stroke-width="4" fill="none" />
<path d="M340.0,-160.0 A20.0,20.0,0,0,1,320.0,-140.0" stroke="#800000" stroke-width="4" fill="none" />
<path d="M360.0,-180.0 A20.0,20.0,0,0,0,340.0,-160.0" stroke="#800000" stroke-width="4" fill="none" />
<path d="M340.0,-200.0 A20.0,20.0,0,0,1,320.0,-180.0" stroke="#800000" stroke-width="4" fill="none" />
<path d="M400.0,-20.0 A20.0,20.0,0,0,0,380.0,-2.4492935982947065e-15" stroke="#800000" stroke-width="4" fill="none" />
<path d="M380.0,-40.0 A20.0,20.0,0,0,1,360.0,-20.0" stroke="#800000" stroke-width="4" fill="none" />
<path d="M380.0,-80.0 A20.0,20.0,0,0,0,400.0,-60.0" stroke="#800000" stroke-width="4" fill="none" />
<path d="M380.0,-40.0 A20.0,20.0,0,0,0,360.0,-60.0" stroke="#800000" stroke-width="4" fill="none" />
<path d="M400.0,-100.0 A20.0,20.0,0,0,0,380.0,-80.0" stroke="#800000" stroke-width="4" fill="none" />
<path d="M380.0,-120.0 A20.0,20.0,0,0,1,360.0,-100.0" stroke="#800000" stroke-width="4" fill="none" />
<path d="M400.0,-140.0 A20.0,20.0,0,0,0,380.0,-120.0" stroke="#800000" stroke-width="4" fill="none" />
<path d="M380.0,-160.0 A20.0,20.0,0,0,1,360.0,-140.0" stroke="#800000" stroke-width="4" fill="none" />
<path d="M400.0,-180.0 A20.0,20.0,0,0,0,380.0,-160.0" stroke="#800000" stroke-width="4" fill="none" />
<path d="M380.0,-200.0 A20.0,20.0,0,0,1,360.0,-180.0" stroke="#800000" stroke-width="4" fill="none" />
<path d="M420.0,-40.0 A20.0,20.0,0,0,0,440.0,-20.0" stroke="#800000" stroke-width="4" fill="none" />
<path d="M420.0,-0.0 A20.0,20.0,0,0,0,400.0,-20.0" stroke="#800000" stroke-width="4" fill="none" />
<path d="M420.0,-80.0 A20.0,20.0,0,0,0,440.0,-60.0" stroke="#800000" stroke-width="4" fill="none" />
<path d="M420.0,-40.0 A20.0,20.0,0,0,0,400.0,-60.0" stroke="#800000" stroke-width="4" fill="none" />
<path d="M420.0,-120.0 A20.0,20.0,0,0,0,440.0,-100.0" stroke="#800000" stroke-width="4" fill="none" />
<path d="M420.0,-80.0 A20.0,20.0,0,0,0,400.0,-100.0" stroke="#800000" stroke-width="4" fill="none" />
<path d="M420.0,-160.0 A20.0,20.0,0,0,0,440.0,-140.0" stroke="#800000" stroke-width="4" fill="none" />
<path d="M420.0,-120.0 A20.0,20.0,0,0,0,400.0,-140.0" stroke="#800000" stroke-width="4" fill="none" />
<path d="M440.0,-180.0 A20.0,20.0,0,0,0,420.0,-160.0" stroke="#800000" stroke-width="4" fill="none" />
<path d="M420.0,-200.0 A20.0,20.0,0,0,1,400.0,-180.0" stroke="#800000" stroke-width="4" fill="none" />
<path d="M460.0,-40.0 A20.0,20.0,0,0,0,480.0,-20.0" stroke="#800000" stroke-width="4" fill="none" />
<path d="M460.0,-0.0 A20.0,20.0,0,0,0,440.0,-20.0" stroke="#800000" stroke-width="4" fill="none" />
<path d="M460.0,-80.0 A20.0,20.0,0,0,0,480.0,-60.0" stroke="#800000" stroke-width="4" fill="none" />
<path d="M460.0,-40.0 A20.0,20.0,0,0,0,440.0,-60.0" stroke="#800000" stroke-width="4" fill="none" />
<path d="M480.0,-100.0 A20.0,20.0,0,0,0,460.0,-80.0" stroke="#800000" stroke-width="4" fill="none" />
<path d="M460.0,-120.0 A20.0,20.0,0,0,1,440.0,-100.0" stroke="#800000" stroke-width="4" fill="none" />
<path d="M460.0,-160.0 A20.0,20.0,0,0,0,480.0,-140.0" stroke="#800000" stroke-width="4" fill="none" />
<path d="M460.0,-120.0 A20.0,20.0,0,0,0,440.0,-140.0" stroke="#800000" stroke-width="4" fill="none" />
<path d="M480.0,-180.0 A20.0,20.0,0,0,0,460.0,-160.0" stroke="#800000" stroke-width="4" fill="none" />
<path d="M460.0,-200.0 A20.0,20.0,0,0,1,440.0,-180.0" stroke="#800000" stroke-width="4" fill="none" />
<path d="M520.0,-20.0 A20.0,20.0,0,0,0,500.0,-2.4492935982947065e-15" stroke="#800000" stroke-width="4" fill="none" />
<path d="M500.0,-40.0 A20.0,20.0,0,0,1,480.0,-20.0" stroke="#800000" stroke-width="4" fill="none" />
<path d="M520.0,-60.0 A20.0,20.0,0,0,0,500.0,-40.0" stroke="#800000" stroke-width="4" fill="none" />
<path d="M500.0,-80.0 A20.0,20.0,0,0,1,480.0,-60.0" stroke="#800000" stroke-width="4" fill="none" />
<path d="M520.0,-100.0 A20.0,20.0,0,0,0,500.0,-80.0" stroke="#800000" stroke-width="4" fill="none" />
<path d="M500.0,-120.0 A20.0,20.0,0,0,1,480.0,-100.0" stroke="#800000" stroke-width="4" fill="none" />
<path d="M500.0,-160.0 A20.0,20.0,0,0,0,520.0,-140.0" stroke="#800000" stroke-width="4" fill="none" />
<path d="M500.0,-120.0 A20.0,20.0,0,0,0,480.0,-140.0" stroke="#800000" stroke-width="4" fill="none" />
<path d="M500.0,-200.0 A20.0,20.0,0,0,0,520.0,-180.0" stroke="#800000" stroke-width="4" fill="none" />
<path d="M500.0,-160.0 A20.0,20.0,0,0,0,480.0,-180.0" stroke="#800000" stroke-width="4" fill="none" />
<path d="M540.0,-40.0 A20.0,20.0,0,0,0,560.0,-20.0" stroke="#800000" stroke-width="4" fill="none" />
<path d="M540.0,-0.0 A20.0,20.0,0,0,0,520.0,-20.0" stroke="#800000" stroke-width="4" fill="none" />
<path d="M560.0,-60.0 A20.0,20.0,0,0,0,540.0,-40.0" stroke="#800000" stroke-width="4" fill="none" />
<path d="M540.0,-80.0 A20.0,20.0,0,0,1,520.0,-60.0" stroke="#800000" stroke-width="4" fill="none" />
<path d="M540.0,-120.0 A20.0,20.0,0,0,0,560.0,-100.0" stroke="#800000" stroke-width="4" fill="none" />
<path d="M540.0,-80.0 A20.0,20.0,0,0,0,520.0,-100.0" stroke="#800000" stroke-width="4" fill="none" />
<path d="M560.0,-140.0 A20.0,20.0,0,0,0,540.0,-120.0" stroke="#800000" stroke-width="4" fill="none" />
<path d="M540.0,-160.0 A20.0,20.0,0,0,1,520.0,-140.0" stroke="#800000" stroke-width="4" fill="none" />
<path d="M560.0,-180.0 A20.0,20.0,0,0,0,540.0,-160.0" stroke="#800000" stroke-width="4" fill="none" />
<path d="M540.0,-200.0 A20.0,20.0,0,0,1,520.0,-180.0" stroke="#800000" stroke-width="4" fill="none" />
<path d="M600.0,-20.0 A20.0,20.0,0,0,0,580.0,-2.4492935982947065e-15" stroke="#800000" stroke-width="4" fill="none" />
<path d="M580.0,-40.0 A20.0,20.0,0,0,1,560.0,-20.0" stroke="#800000" stroke-width="4" fill="none" />
<path d="M580.0,-80.0 A20.0,20.0,0,0,0,600.0,-60.0" stroke="#800000" stroke-width="4" fill="none" />
<path d="M580.0,-40.0 A20.0,20.0,0,0,0,560.0,-60.0" stroke="#800000" stroke-width="4" fill="none" />
<path d="M580.0,-120.0 A20.0,20.0,0,0,0,600.0,-100.0" stroke="#800000" stroke-width="4" fill="none" />
<path d="M580.0,-80.0 A20.0,20.0,0,0,0,560.0,-100.0" stroke="#800000" stroke-width="4" fill="none" />
<path d="M580.0,-160.0 A20.0,20.0,0,0,0,600.0,-140.0" stroke="#800000" stroke-width="4" fill="none" />
<path d="M580.0,-120.0 A20.0,20.0,0,0,0,560.0,-140.0" stroke="#800000" stroke-width="4" fill="none" />
<path d="M600.0,-180.0 A20.0,20.0,0,0,0,580.0,-160.0" stroke="#800000" stroke-width="4" fill="none" />
<path d="M580.0,-200.0 A20.0,20.0,0,0,1,560.0,-180.0" stroke="#800000" stroke-width="4" fill="none" />
<path d="M640.0,-20.0 A20.0,20.0,0,0,0,620.0,-2.4492935982947065e-15" stroke="#800000" stroke-width="4" fill="none" />
<path d="M620.0,-40.0 A20.0,20.0,0,0,1,600.0,-20.0" stroke="#800000" stroke-width="4" fill="none" />
<path d="M620.0,-80.0 A20.0,20.0,0,0,0,640.0,-60.0" stroke="#800000" stroke-width="4" fill="none" />
<path d="M620.0,-40.0 A20.0,20.0,0,0,0,600.0,-60.0" stroke="#800000" stroke-width="4" fill="none" />
<path d="M640.0,-100.0 A20.0,20.0,0,0,0,620.0,-80.0" stroke="#800000" stroke-width="4" fill="none" />
<path d="M620.0,-120.0 A20.0,20.0,0,0,1,600.0,-100.0" stroke="#800000" stroke-width="4" fill="none" />
<path d="M620.0,-160.0 A20.0,20.0,0,0,0,640.0,-140.0" stroke="#800000" stroke-width="4" fill="none" />
<path d="M620.0,-120.0 A20.0,20.0,0,0,0,600.0,-140.0" stroke="#800000" stroke-width="4" fill="none" />
<path d="M620.0,-200.0 A20.0,20.0,0,0,0,640.0,-180.0" stroke="#800000" stroke-width="4" fill="none" />
<path d="M620.0,-160.0 A20.0,20.0,0,0,0,600.0,-180.0" stroke="#800000" stroke-width="4" fill="none" />
<path d="M660.0,-40.0 A20.0,20.0,0,0,0,680.0,-20.0" stroke="#800000" stroke-width="4" fill="none" />
<path d="M660.0,-0.0 A20.0,20.0,0,0,0,640.0,-20.0" stroke="#800000" stroke-width="4" fill="none" />
<path d="M680.0,-60.0 A20.0,20.0,0,0,0,660.0,-40.0" stroke="#800000" stroke-width="4" fill="none" />
<path d="M660.0,-80.0 A20.0,20.0,0,0,1,640.0,-60.0" stroke="#800000" stroke-width="4" fill="none" />
<path d="M660.0,-120.0 A20.0,20.0,0,0,0,680.0,-100.0" stroke="#800000" stroke-width="4" fill="none" />
<path d="M660.0,-80.0 A20.0,20.0,0,0,0,640.0,-100.0" stroke="#800000" stroke-width="4" fill="none" />
<path d="M680.0,-140.0 A20.0,20.0,0,0,0,660.0,-120.0" stroke="#800000" stroke-width="4" fill="none" />
<path d="M660.0,-160.0 A20.0,20.0,0,0,1,640.0,-140.0" stroke="#800000" stroke-width="4" fill="none" />
<path d="M680.0,-180.0 A20.0,20.0,0,0,0,660.0,-160.0" stroke="#800000" stroke-width="4" fill="none" />
<path d="M660.0,-200.0 A20.0,20.0,0,0,1,640.0,-180.0" stroke="#800000" stroke-width="4" fill="none" />
<path d="M700.0,-40.0 A20.0,20.0,0,0,0,720.0,-20.0" stroke="#800000" stroke-width="4" fill="none" />
<path d="M700.0,-0.0 A20.0,20.0,0,0,0,680.0,-20.0" stroke="#800000" stroke-width="4" fill="none" />
<path d="M700.0,-80.0 A20.0,20.0,0,0,0,720.0,-60.0" stroke="#800000" stroke-width="4" fill="none" />
<path d="M700.0,-40.0 A20.0,20.0,0,0,0,680.0,-60.0" stroke="#800000" stroke-width="4" fill="none" />
<path d="M700.0,-120.0 A20.0,20.0,0,0,0,720.0,-100.0" stroke="#800000" stroke-width="4" fill="none" />
<path d="M700.0,-80.0 A20.0,20.0,0,0,0,680.0,-100.0" stroke="#800000" stroke-width="4" fill="none" />
<path d="M700.0,-160.0 A20.0,20.0,0,0,0,720.0,-140.0" stroke="#800000" stroke-width="4" fill="none" />
<path d="M700.0,-120.0 A20.0,20.0,0,0,0,680.0,-140.0" stroke="#800000" stroke-width="4" fill="none" />
<path d="M720.0,-180.0 A20.0,20.0,0,0,0,700.0,-160.0" stroke="#800000" stroke-width="4" fill="none" />
<path d="M700.0,-200.0 A20.0,20.0,0,0,1,680.0,-180.0" stroke="#800000" stroke-width="4" fill="none" />
<path d="M760.0,-20.0 A20.0,20.0,0,0,0,740.0,-2.4492935982947065e-15" stroke="#800000" stroke-width="4" fill="none" />
<path d="M740.0,-40.0 A20.0,20.0,0,0,1,720.0,-20.0" stroke="#800000" stroke-width="4" fill="none" />
<path d="M740.0,-80.0 A20.0,20.0,0,0,0,760.0,-60.0" stroke="#800000" stroke-width="4" fill="none" />
<path d="M740.0,-40.0 A20.0,20.0,0,0,0,720.0,-60.0" stroke="#800000" stroke-width="4" fill="none" />
<path d="M760.0,-100.0 A20.0,20.0,0,0,0,740.0,-80.0" stroke="#800000" stroke-width="4" fill="none" />
<path d="M740.0,-120.0 A20.0,20.0,0,0,1,720.0,-100.0" stroke="#800000" stroke-width="4" fill="none" />
<path d="M760.0,-140.0 A20.0,20.0,0,0,0,740.0,-120.0" stroke="#800000" stroke-width="4" fill="none" />
<path d="M740.0,-160.0 A20.0,20.0,0,0,1,720.0,-140.0" stroke="#800000" stroke-width="4" fill="none" />
<path d="M760.0,-180.0 A20.0,20.0,0,0,0,740.0,-160.0" stroke="#800000" stroke-width="4" fill="none" />
<path d="M740.0,-200.0 A20.0,20.0,0,0,1,720.0,-180.0" stroke="#800000" stroke-width="4" fill="none" />
<path d="M800.0,-20.0 A20.0,20.0,0,0,0,780.0,-2.4492935982947065e-15" stroke="#800000" stroke-width="4" fill="none" />
<path d="M780.0,-40.0 A20.0,20.0,0,0,1,760.0,-20.0" stroke="#800000" stroke-width="4" fill="none" />
<path d="M800.0,-60.0 A20.0,20.0,0,0,0,780.0,-40.0" stroke="#800000" stroke-width="4" fill="none" />
<path d="M780.0,-80.0 A20.0,20.0,0,0,1,760.0,-60.0" stroke="#800000" stroke-width="4" fill="none" />
<path d="M780.0,-120.0 A20.0,20.0,0,0,0,800.0,-100.0" stroke="#800000" stroke-width="4" fill="none" />
<path d="M780.0,-80.0 A20.0,20.0,0,0,0,760.0,-100.0" stroke="#800000" stroke-width="4" fill="none" />
<path d="M800.0,-140.0 A20.0,20.0,0,0,0,780.0,-120.0" stroke="#800000" stroke-width="4" fill="none" />
<path d="M780.0,-160.0 A20.0,20.0,0,0,1,760.0,-140.0" stroke="#800000" stroke-width="4" fill="none" />
<path d="M780.0,-200.0 A20.0,20.0,0,0,0,800.0,-180.0" stroke="#800000" stroke-width="4" fill="none" />
<path d="M780.0,-160.0 A20.0,20.0,0,0,0,760.0,-180.0" stroke="#800000" stroke-width="4" fill="none" />
</svg>