<?xml version="1.0" encoding="UTF-8"?>
<svg xmlns="http://www.w3.org/2000/svg" xmlns:xlink="http://www.w3.org/1999/xlink"
     width="400" height="400" viewBox="0 -400 400 400">
<defs>
</defs>
<path d="M40.0,-20.0 A20.0,20.0,0,0,0,20.0,-2.4492935982947065e-15" stroke="navy" stroke-width="4" fill="none" />
<path d="M20.0,-40.0 A20.0,20.0,0,0,1,-3.673940397442059e-15,-20.0" stroke="navy" stroke-width="4" fill="none" />
<path d="M40.0,-60.0 A20.0,20.0,0,0,0,20.0,-40.0" stroke="navy" stroke-width="4" fill="none" />
<path d="M20.0,-80.0 A20.0,20.0,0,0,1,-3.673940397442059e-15,-60.0" stroke="navy" stroke-width="4" fill="none" />
<path d="M20.0,-120.0 A20.0,20.0,0,0,0,39.99999999999999,-100.0" stroke="navy" stroke-width="4" fill="none" />
<path d="M20.0,-80.0 A20.0,20.0,0,0,0,1.2246467991473533e-15,-100.0" stroke="navy" stroke-width="4" fill="none" />
<path d="M40.0,-140.0 A20.0,20.0,0,0,0,20.0,-120.0" stroke="navy" stroke-width="4" fill="none" />
<path d="M20.0,-160.0 A20.0,20.0,0,0,1,-3.673940397442059e-15,-140.0" stroke="navy" stroke-width="4" fill="none" />
<path d="M40.0,-180.0 A20.0,20.0,0,0,0,20.0,-160.0" stroke="navy" stroke-width="4" fill="none" />
<path d="M20.0,-200.0 A20.0,20.0,0,0,1,-3.673940397442059e-15,-180.0" stroke="navy" stroke-width="4" fill="none" />
<path d="M40.0,-220.0 A20.0,20.0,0,0,0,20.0,-200.0" stroke="navy" stroke-width="4" fill="none" />
<path d="M20.0,-240.0 A20.0,20.0,0,0,1,-3.673940397442059e-15,-220.0" stroke="navy" stroke-width="4" fill="none" />
<path d="M40.0,-260.0 A20.0,20.0,0,0,0,20.0,-240.0" stroke="navy" stroke-width="4" fill="none" />
<path d="M20.0,-280.0 A20.0,20.0,0,0,1,-3.673940397442059e-15,-260.0" stroke="navy" stroke-width="4" fill="none" />
<path d="M40.0,-300.0 A20.0,20.0,0,0,0,20.0,-280.0" stroke="navy" stroke-width="4" fill="none" />
<path d="M20.0,-320.0 A20.0,20.0,0,0,1,-3.673940397442059e-15,-300.0" stroke="navy" stroke-width="4" fill="none" />
<path d="M20.0,-360.0 A20.0,20.0,0,0,0,39.99999999999999,-340.0" stroke="navy" stroke-width="4" fill="none" />
<path d="M20.0,-320.0 A20.0,20.0,0,0,0,1.2246467991473533e-15,-340.0" stroke="navy" stroke-width="4" fill="none" />
<path d="M40.0,-380.0 A20.0,20.0,0,0,0,20.0,-360.0" stroke="navy" stroke-width="4" fill="none" />
<path d="M20.0,-400.0 A20.0,20.0,0,0,1,-3.673940397442059e-15,-380.0" stroke="navy" stroke-width="4" fill="none" />
<path d="M80.0,-20.0 A20.0,20.0,0,0,0,60.0,-2.4492935982947065e-15" stroke="navy" stroke-width="4" fill="none" />
<path d="M60.0,-40.0 A20.0,20.0,0,0,1,39.99999999999999,-20.0" stroke="navy" stroke-width="4" fill="none" />
<path d="M80.0,-60.0 A20.0,20.0,0,0,0,60.0,-40.0" stroke="navy" stroke-width="4" fill="none" />
<path d="M60.0,-80.0 A20.0,20.0,0,0,1,39.99999999999999,-60.0" stroke="navy" stroke-width="4" fill="none" />
<path d="M80.0,-100.0 A20.0,20.0,0,0,0,60.0,-80.0" stroke="navy" stroke-width="4" fill="none" />
<path d="M60.0,-120.0 A20.0,20.0,0,0,1,39.99999999999999,-100.0" stroke="navy" stroke-width="4" fill="none" />
<path d="M80.0,-140.0 A20.0,20.0,0,0,0,60.0,-120.0" stroke="navy" stroke-width="4" fill="none" />
<path d="M60.0,-160.0 A20.0,20.0,0,0,1,39.99999999999999,-140.0" stroke="navy" stroke-width="4" fill="none" />
<path d="M80.0,-180.0 A20.0,20.0,0,0,0,60.0,-160.0" stroke="navy" stroke-width="4" fill="none" />
<path d="M60.0,-200.0 A20.0,20.0,0,0,1,39.99999999999999,-180.0" stroke="navy" stroke-width="4" fill="none" />
<path d="M80.0,-220.0 A20.0,20.0,0,0,0,60.0,-200.0" stroke="navy" stroke-width="4" fill="none" />
<path d="M60.0,-240.0 A20.0,20.0,0,0,1,39.99999999999999,-220.0" stroke="navy" stroke-width="4" fill="none" />
<path d="M60.0,-280.0 A20.0,20.0,0,0,0,80.0,-260.0" stroke="navy" stroke-width="4" fill="none" />
<path d="M60.0,-240.0 A20.0,20.0,0,0,0,40.0,-260.0" stroke="navy" stroke-width="4" fill="none" />
<path d="M80.0,-300.0 A20.0,20.0,0,0,0,60.0,-280.0" stroke="navy" stroke-width="4" fill="none" />
<path d="M60.0,-320.0 A20.0,20.0,0,0,1,39.99999999999999,-300.0" stroke="navy" stroke-width="4" fill="none" />
<path d="M60.0,-360.0 A20.0,20.0,0,0,0,80.0,-340.0" stroke="navy" stroke-width="4" fill="none" />
<path d="M60.0,-320.0 A20.0,20.0,0,0,0,40.0,-340.0" stroke="navy" stroke-width="4" fill="none" />
<path d="M60.0,-400.0 A20.0,20.0,0,0,0,80.0,-380.0" stroke="navy" stroke-width="4" fill="none" />
<path d="M60.0,-360.0 A20.0,20.0,0,0,0,40.0,-380.0" stroke="navy" stroke-width="4" fill="none" />
<path d="M120.0,-20.0 A20.0,20.0,0,0,0,100.0,-2.4492935982947065e-15" stroke="navy" stroke-width="4" fill="none" />
<path d="M100.0,-40.0 A20.0,20.0,0,0,1,80.0,-20.0" stroke="navy" stroke-width="4" fill="none" />
<path d="M120.0,-60.0 A20.0,20.0,0,0,0,100.0,-40.0" stroke="navy" stroke-width="4" fill="none" />
<path d="M100.0,-80.0 A20.0,20.0,0,0,1,80.0,-60.0" stroke="navy" stroke-width="4" fill="none" />
<path d="M100.0,-120.0 A20.0,20.0,0,0,0,120.0,-100.0" stroke="navy" stroke-width="4" fill="none" />
<path d="M100.0,-80.0 A20.0,20.0,0,0,0,80.0,-100.0" stroke="navy" stroke-width="4" fill="none" />
<path d="M100.0,-160.0 A20.0,20.0,0,0,0,120.0,-140.0" stroke="navy" stroke-width="4" fill="none" />
<path d="M100.0,-120.0 A20.0,20.0,0,0,0,80.0,-140.0" stroke="navy" stroke-width="4" fill="none" />
<path d="M100.0,-200.0 A20.0,20.0,0,0,0,120.0,-180.0" stroke="navy" stroke-width="4" fill="none" />
<path d="M100.0,-160.0 A20.0,20.0,0,0,0,80.0,-180.0" stroke="navy" stroke-width="4" fill="none" />
<path d="M120.0,-220.0 A20.0,20.0,0,0,0,100.0,-200.0" stroke="navy" stroke-width="4" fill="none" />
<path d="M100.0,-240.0 A20.0,20.0,0,0,1,80.0,-220.0" stroke="navy" stroke-width="4" fill="none" />
<path d="M120.0,-260.0 A20.0,20.0,0,0,0,100.0,-240.0" stroke="navy" stroke-width="4" fill="none" />
<path d="M100.0,-280.0 A20.0,20.0,0,0,1,80.0,-260.0" stroke="navy" stroke-width="4" fill="none" />
<path d="M100.0,-320.0 A20.0,20.0,0,0,0,120.0,-300.0" stroke="navy" stroke-width="4" fill="none" />
<path d="M100.0,-280.0 A20.0,20.0,0,0,0,80.0,-300.0" stroke="navy" stroke-width="4" fill="none" />
<path d="M120.0,-340.0 A20.0,20.0,0,0,0,100.0,-320.0" stroke="navy" stroke-width="4" fill="none" />
<path d="M100.0,-360.0 A20.0,20.0,0,0,1,80.0,-340.0" stroke="navy" stroke-width="4" fill="none" />
<path d="M120.0,-380.0 A20.0,20.0,0,0,0,100.0,-360.0" stroke="navy" stroke-width="4" fill="none" />
<path d="M100.0,-400.0 A20.0,20.0,0,0,1,80.0,-380.0" stroke="navy" stroke-width="4" fill="none" />
<path d="M140.0,-40.0 A20.0,20.0,0,0,0,160.0,-20.0" stroke="navy" stroke-width="4" fill="none" />
<path d="M140.0,-0.0 A20.0,20.0,0,0,0,120.0,-20.0" stroke="navy" stroke-width="4" fill="none" />
<path d="M160.0,-60.0 A20.0,20.0,0,0,0,140.0,-40.0" stroke="navy" stroke-width="4" fill="none" />
<path d="M140.0,-80.0 A20.0,20.0,0,0,1,120.0,-60.0" stroke="navy" stroke-width="4" fill="none" />
<path d="M140.0,-120.0 A20.0,20.0,0,0,0,160.0,-100.0" stroke="navy" stroke-width="4" fill="none" />
<path d="M140.0,-80.0 A20.0,20.0,0,0,0,120.0,-100.0" stroke="navy" stroke-width="4" fill="none" />
<path d="M140.0,-160.0 A20.0,20.0,0,0,0,160.0,-140.0" stroke="navy" stroke-width="4" fill="none" />
<path d="M140.0,-120.0 A20.0,20.0,0,0,0,120.0,-140.0" stroke="navy" stroke-width="4" fill="none" />
<path d="M140.0,-200.0 A20.0,20.0,0,0,0,160.0,-180.0" stroke="navy" stroke-width="4" fill="none" />
<path d="M140.0,-160.0 A20.0,20.0,0,0,0,120.0,-180.0" stroke="navy" stroke-width="4" fill="none" />
<path d="M160.0,-220.0 A20.0,20.0,0,0,0,140.0,-200.0" stroke="navy" stroke-width="4" fill="none" />
<path d="M140.0,-240.0 A20.0,20.0,0,0,1,120.0,-220.0" stroke="navy" stroke-width="4" fill="none" />
<path d="M140.0,-280.0 A20.0,20.0,0,0,0,160.0,-260.0" stroke="navy" stroke-width="4" fill="none" />
<path d="M140.0,-240.0 A20.0,20.0,0,0,0,120.0,-260.0" stroke="navy" stroke-width="4" fill="none" />
<path d="M160.0,-300.0 A20.0,20.0,0,0,0,140.0,-280.0" stroke="navy" stroke-width="4" fill="none" />
<path d="M140.0,-320.0 A20.0,20.0,0,0,1,120.0,-300.0" stroke="navy" stroke-width="4" fill="none" />
<path d="M140.0,-360.0 A20.0,20.0,0,0,0,160.0,-340.0" stroke="navy" stroke-width="4" fill="none" />
<path d="M140.0,-320.0 A20.0,20.0,0,0,0,120.0,-340.0" stroke="navy" stroke-width="4" fill="none" />
<path d="M160.0,-380.0 A20.0,20.0,0,0,0,140.0,-360.0" stroke="navy" stroke-width="4" fill="none" />
<path d="M140.0,-400.0 A20.0,20.0,0,0,1,120.0,-380.0" stroke="navy" stroke-width="4" fill="none" />
<path d="M180.0,-40.0 A20.0,20.0,0,0,0,200.0,-20.0" stroke="navy" stroke-width="4" fill="none" />
<path d="M180.0,-0.0 A20.0,20.0,0,0,0,160.0,-20.0" stroke="navy" stroke-width="4" fill="none" />
<path d="M180.0,-80.0 A20.0,20.0,0,0,0,200.0,-60.0" stroke="navy" stroke-width="4" fill="none" />
<path d="M180.0,-40.0 A20.0,20.0,0,0,0,160.0,-60.0" stroke="navy" stroke-width="4" fill="none" />
<path d="M200.0,-100.0 A20.0,20.0,0,0,0,180.0,-80.0" stroke="navy" stroke-width="4" fill="none" />
<path d="M180.0,-120.0 A20.0,20.0,0,0,1,160.0,-100.0" stroke="navy" stroke-width="4" fill="none" />
<path d="M200.0,-140.0 A20.0,20.0,0,0,0,180.0,-120.0" stroke="navy" stroke-width="4" fill="none" />
<path d="M180.0,-160.0 A20.0,20.0,0,0,1,160.0,-140.0" stroke="navy" stroke-width="4" fill="none" />
<path d="M200.0,-180.0 A20.0,20.0,0,0,0,180.0,-160.0" stroke="navy" stroke-width="4" fill="none" />
<path d="M180.0,-200.0 A20.0,20.0,0,0,1,160.0,-180.0" stroke="navy" stroke-width="4" fill="none" />
<path d="M200.0,-220.0 A20.0,20.0,0,0,0,180.0,-200.0" stroke="navy" stroke-width="4" fill="none" />
<path d="M180.0,-240.0 A20.0,20.0,0,0,1,160.0,-220.0" stroke="navy" stroke-width="4" fill="none" />
<path d="M180.0,-280.0 A20.0,20.0,0,0,0,200.0,-260.0" stroke="navy" stroke-width="4" fill="none" />
<path d="M180.0,-240.0 A20.0,20.0,0,0,0,160.0,-260.0" stroke="navy" stroke-width="4" fill="none" />
<path d="M200.0,-300.0 A20.0,20.0,0,0,0,180.0,-280.0" stroke="navy" stroke-width="4" fill="none" />
<path d="M180.0,-320.0 A20.0,20.0,0,0,1,160.0,-300.0" stroke="navy" stroke-width="4" fill="none" />
<path d="M200.0,-340.0 A20.0,20.0,0,0,0,180.0,-320.0" stroke="navy" stroke-width="4" fill="none" />
<path d="M180.0,-360.0 A20.0,20.0,0,0,1,160.0,-340.0" stroke="navy" stroke-width="4" fill="none" />
<path d="M200.0,-380.0 A20.0,20.0,0,0,0,180.0,-360.0" stroke="navy" stroke-width="4" fill="none" />
<path d="M180.0,-400.0 A20.0,20.0,0,0,1,160.0,-380.0" stroke="navy" stroke-width="4" fill="none" />
<path d="M220.0,-40.0 A20.0,20.0,0,0,0,240.0,-20.0" stroke="navy" stroke-width="4" fill="none" />
<path d="M220.0,-0.0 A20.0,20.0,0,0,0,200.0,-20.0" stroke="navy" stroke-width="4" fill="none" />
<path d="M220.0,-80.0 A20.0,20.0,0,0,0,240.0,-60.0" stroke="navy" stroke-width="4" fill="none" />
<path d="M220.0,-40.0 A20.0,20.0,0,0,0,200.0,-60.0" stroke="navy" stroke-width="4" fill="none" />
<path d="M220.0,-120.0 A20.0,20.0,0,0,0,240.0,-100.0" stroke="navy" stroke-width="4" fill="none" />
<path d="M220.0,-80.0 A20.0,20.0,0,0,0,200.0,-100.0" stroke="navy" stroke-width="4" fill="none" />
<path d="M220.0,-160.0 A20.0,20.0,0,0,0,240.0,-140.0" stroke="navy" stroke-width="4" fill="none" />
<path d="M220.0,-120.0 A20.0,20.0,0,0,0,200.0,-140.0" stroke="navy" stroke-width="4" fill="none" />
<path d="M240.0,-180.0 A20.0,20.0,0,0,0,220.0,-160.0" stroke="navy" stroke-width="4" fill="none" />
<path d="M220.0,-200.0 A20.0,20.0,0,0,1,200.0,-180.0" stroke="navy" stroke-width="4" fill="none" />
<path d="M220.0,-240.0 A20.0,20.0,0,0,0,240.0,-220.0" stroke="navy" stroke-width="4" fill="none" />
<path d="M220.0,-200.0 A20.0,20.0,0,0,0,200.0,-220.0" stroke="navy" stroke-width="4" fill="none" />
<path d="M220.0,-280.0 A20.0,20.0,0,0,0,240.0,-260.0" stroke="navy" stroke-width="4" fill="none" />
<path d="M220.0,-240.0 A20.0,20.0,0,0,0,200.0,-260.0" stroke="navy" stroke-width="4" fill="none" />
<path d="M240.0,-300.0 A20.0,20.0,0,0,0,220.0,-280.0" stroke="navy" stroke-width="4" fill="none" />
<path d="M220.0,-320.0 A20.0,20.0,0,0,1,200.0,-300.0" stroke="navy" stroke-width="4" fill="none" />
<path d="M220.0,-360.0 A20.0,20.0,0,0,0,240.0,-340.0" stroke="navy" stroke-width="4" fill="none" />
<path d="M220.0,-320.0 A20.0,20.0,0,0,0,200.0,-340.0" stroke="navy" stroke-width="4" fill="none" />
<path d="M240.0,-380.0 A20.0,20.0,0,0,0,220.0,-360.0" stroke="navy" stroke-width="4" fill="none" />
<path d="M220.0,-400.0 A20.0,20.0,0,0,1,200.0,-380.0" stroke="navy" stroke-width="4" fill="none" />
<path d="M280.0,-20.0 A20.0,20.0,0,0,0,260.0,-2.4492935982947065e-15" stroke="navy" stroke-width="4" fill="none" />
<path d="M260.0,-40.0 A20.0,20.0,0,0,1,240.0,-20.0" stroke="navy" stroke-width="4" fill="none" />
<path d="M280.0,-60.0 A20.0,20.0,0,0,0,260.0,-40.0" stroke="navy" stroke-width="4" fill="none" />
<path d="M260.0,-80.0 A20.0,20.0,0,0,1,240.0,-60.0" stroke="navy" stroke-width="4" fill="none" />
<path d="M280.0,-100.0 A20.0,20.0,0,0,0,260.0,-80.0" stroke="navy" stroke-width="4" fill="none" />
<path d="M260.0,-120.0 A20.0,20.0,0,0,1,240.0,-100.0" stroke="navy" stroke-width="4" fill="none" />
<path d="M260.0,-160.0 A20.0,20.0,0,0,0,280.0,-140.0" stroke="navy" stroke-width="4" fill="none" />
<path d="M260.0,-120.0 A20.0,20.0,0,0,0,240.0,-140.0" stroke="navy" stroke-width="4" fill="none" />
<path d="M260.0,-200.0 A20.0,20.0,0,0,0,280.0,-180.0" stroke="navy" stroke-width="4" fill="none" />
<path d="M260.0,-160.0 A20.0,20.0,0,0,0,240.0,-180.0" stroke="navy" stroke-width="4" fill="none" />
<path d="M260.0,-240.0 A20.0,20.0,0,0,0,280.0,-220.0" stroke="navy" stroke-width="4" fill="none" />
<path d="M260.0,-200.0 A20.0,20.0,0,0,0,240.0,-220.0" stroke="navy" stroke-width="4" fill="none" />
<path d="M280.0,-260.0 A20.0,20.0,0,0,0,260.0,-240.0" stroke="navy" stroke-width="4" fill="none" />
<path d="M260.0,-280.0 A20.0,20.0,0,0,1,240.0,-260.0" stroke="navy" stroke-width="4" fill="none" />
<path d="M260.0,-320.0 A20.0,20.0,0,0,0,280.0,-300.0" stroke="navy" stroke-width="4" fill="none" />
<path d="M260.0,-280.0 A20.0,20.0,0,0,0,240.0,-300.0" stroke="navy" stroke-width="4" fill="none" />
<path d="M280.0,-340.0 A20.0,20.0,0,0,0,260.0,-320.0" stroke="navy" stroke-width="4" fill="none" />
<path d="M260.0,-360.0 A20.0,20.0,0,0,1,240.0,-340.0" stroke="navy" stroke-width="4" fill="none" />
<path d="M280.0,-380.0 A20.0,20.0,0,0,0,260.0,-360.0" stroke="navy" stroke-width="4" fill="none" />
<path d="M260.0,-400.0 A20.0,20.0,0,0,1,240.0,-380.0" stroke="navy" stroke-width="4" fill="none" />
<path d="M320.0,-20.0 A20.0,20.0,0,0,0,300.0,-2.4492935982947065e-15" stroke="navy" stroke-width="4" fill="none" />
<path d="M300.0,-40.0 A20.0,20.0,0,0,1,280.0,-20.0" stroke="navy" stroke-width="4" fill="none" />
<path d="M300.0,-80.0 A20.0,20.0,0,0,0,320.0,-60.0" stroke="navy" stroke-width="4" fill="none" />
<path d="M300.0,-40.0 A20.0,20.0,0,0,0,280.0,-60.0" stroke="navy" stroke-width="4" fill="none" />
<path d="M300.0,-120.0 A20.0,20.0,0,0,0,320.0,-100.0" stroke="navy" stroke-width="4" fill="none" />
<path d="M300.0,-80.0 A20.0,20.0,0,0,0,280.0,-100.0" stroke="navy" stroke-width="4" fill="none" />
<path d="M300.0,-160.0 A20.0,20.0,0,0,0,320.0,-140.0" stroke="navy" stroke-width="4" fill="none" />
<path d="M300.0,-120.0 A20.0,20.0,0,0,0,280.0,-140.0" stroke="navy" stroke-width="4" fill="none" />
<path d="M320.0,-180.0 A20.0,20.0,0,0,0,300.0,-160.0" stroke="navy" stroke-width="4" fill="none" />
<path d="M300.0,-200.0 A20.0,20.0,0,0,1,280.0,-180.0" stroke="navy" stroke-width="4" fill="none" />
<path d="M320.0,-220.0 A20.0,20.0,0,0,0,300.0,-200.0" stroke="navy" stroke-width="4" fill="none" />
<path d="M300.0,-240.0 A20.0,20.0,0,0,1,280.0,-220.0" stroke="navy" stroke-width="4" fill="none" />
<path d="M300.0,-280.0 A20.0,20.0,0,0,0,320.0,-260.0" stroke="navy" stroke-width="4" fill="none" />
<path d="M300.0,-240.0 A20.0,20.0,0,0,0,280.0,-260.0" stroke="navy" stroke-width="4" fill="none" />
<path d="M320.0,-300.0 A20.0,20.0,0,0,0,300.0,-280.0" stroke="navy" stroke-width="4" fill="none" />
<path d="M300.0,-320.0 A20.0,20.0,0,0,1,280.0,-300.0" stroke="navy" stroke-width="4" fill="none" />
<path d="M300.0,-360.0 A20.0,20.0,0,0,0,320.0,-340.0" stroke="navy" stroke-width="4" fill="none" />
<path d="M300.0,-320.0 A20.0,20.0,0,0,0,280.0,-340.0" stroke="navy" stroke-width="4" fill="none" />
<path d="M300.0,-400.0 A20.0,20.0,0,0,0,320.0,-380.0" stroke="navy" stroke-width="4" fill="none" />
<path d="M300.0,-360.0 A20.0,20.0,0,0,0,280.0,-380.0" stroke="navy" stroke-width="4" fill="none" />
<path d="M340.0,-40.0 A20.0,20.0,0,0,0,360.0,-20.0" stroke="navy" stroke-width="4" fill="none" />
<path d="M340.0,-0.0 A20.0,20.0,0,0,0,320.0,-20.0" stroke="navy" stroke-width="4" fill="none" />
<path d="M360.0,-60.0 A20.0,20.0,0,0,0,340.0,-40.0" stroke="navy" stroke-width="4" fill="none" />
<path d="M340.0,-80.0 A20.0,20.0,0,0,1,320.0,-60.0" stroke="navy" stroke-width="4" fill="none" />
<path d="M340.0,-120.0 A20.0,20.0,0,0,0,360.0,-100.0" stroke="navy" stroke-width="4" fill="none" />
<path d="M340.0,-80.0 A20.0,20.0,0,0,0,320.0,-100.0" stroke="navy" stroke-width="4" fill="none" />
<path d="M360.0,-140.0 A20.0,20.0,0,0,0,340.0,-120.0" stroke="navy" stroke-width="4" fill="none" />
<path d="M340.0,-160.0 A20.0,20.0,0,0,1,320.0,-140.0" stroke="navy" stroke-width="4" fill="none" />
<path d="M360.0,-180.0 A20.0,20.0,0,0,0,340.0,-160.0" stroke="navy" stroke-width="4" fill="none" />
<path d="M340.0,-200.0 A20.0,20.0,0,0,1,320.0,-180.0" stroke="navy" stroke-width="4" fill="none" />
<path d="M340.0,-240.0 A20.0,20.0,0,0,0,360.0,-220.0" stroke="navy" stroke-width="4" fill="none" />
<path d="M340.0,-200.0 A20.0,20.0,0,0,0,320.0,-220.0" stroke="navy" stroke-width="4" fill="none" />
<path d="M340.0,-280.0 A20.0,20.0,0,0,0,360.0,-260.0" stroke="navy" stroke-width="4" fill="none" />
<path d="M340.0,-240.0 A20.0,20.0,0,0,0,320.0,-260.0" stroke="navy" stroke-width="4" fill="none" />
<path d="M340.0,-320.0 A20.0,20.0,0,0,0,360.0,-300.0" stroke="navy" stroke-width="4" fill="none" />
<path d="M340.0,-280.0 A20.0,20.0,0,0,0,320.0,-300.0" stroke="navy" stroke-width="4" fill="none" />
<path d="M340.0,-360.0 A20.0,20.0,0,0,0,360.0,-340.0" stroke="navy" stroke-width="4" fill="none" />
<path d="M340.0,-320.0 A20.0,20.0,0,0,0,320.0,-340.0" stroke="navy" stroke-width="4" fill="none" />
<path d="M360.0,-380.0 A20.0,20.0,0,0,0,340.0,-360.0" stroke="navy" stroke-width="4" fill="none" />
<path d="M340.0,-400.0 A20.0,20.0,0,0,1,320.0,-380.0" stroke="navy" stroke-width="4" fill="none" />
<path d="M400.0,-20.0 A20.0,20.0,0,0,0,380.0,-2.4492935982947065e-15" stroke="navy" stroke-width="4" fill="none" />
<path d="M380.0,-40.0 A20.0,20.0,0,0,1,360.0,-20.0" stroke="navy" stroke-width="4" fill="none" />
<path d="M380.0,-80.0 A20.0,20.0,0,0,0,400.0,-60.0" stroke="navy" stroke-width="4" fill="none" />
<path d="M380.0,-40.0 A20.0,20.0,0,0,0,360.0,-60.0" stroke="navy" stroke-width="4" fill="none" />
<path d="M400.0,-100.0 A20.0,20.0,0,0,0,380.0,-80.0" stroke="navy" stroke-width="4" fill="none" />
<path d="M380.0,-120.0 A20.0,20.0,0,0,1,360.0,-100.0" stroke="navy" stroke-width="4" fill="none" />
<path d="M400.0,-140.0 A20.0,20.0,0,0,0,380.0,-120.0" stroke="navy" stroke-width="4" fill="none" />
<path d="M380.0,-160.0 A20.0,20.0,0,0,1,360.0,-140.0" stroke="navy" stroke-width="4" fill="none" />
<path d="M400.0,-180.0 A20.0,20.0,0,0,0,380.0,-160.0" stroke="navy" stroke-width="4" fill="none" />
<path d="M380.0,-200.0 A20.0,20.0,0,0,1,360.0,-180.0" stroke="navy" stroke-width="4" fill="none" />
<path d="M400.0,-220.0 A20.0,20.0,0,0,0,380.0,-200.0" stroke="navy" stroke-width="4" fill="none" />
<path d="M380.0,-240.0 A20.0,20.0,0,0,1,360.0,-220.0" stroke="navy" stroke-width="4" fill="none" />
<path d="M400.0,-260.0 A20.0,20.0,0,0,0,380.0,-240.0" stroke="navy" stroke-width="4" fill="none" />
<path d="M380.0,-280.0 A20.0,20.0,0,0,1,360.0,-260.0" stroke="navy" stroke-width="4" fill="none" />
<path d="M380.0,-320.0 A20.0,20.0,0,0,0,400.0,-300.0" stroke="navy" stroke-width="4" fill="none" />
<path d="M380.0,-280.0 A20.0,20.0,0,0,0,360.0,-300.0" stroke="navy" stroke-width="4" fill="none" />
<path d="M400.0,-340.0 A20.0,20.0,0,0,0,380.0,-320.0" stroke="navy" stroke-width="4" fill="none" />
<path d="M380.0,-360.0 A20.0,20.0,0,0,1,360.0,-340.0" stroke="navy" stroke-width="4" fill="none" />
<path d="M380.0,-400.0 A20.0,20.0,0,0,0,400.0,-380.0" stroke="navy" stroke-width="4" fill="none" />
<path d="M380.0,-360.0 A20.0,20.0,0,0,0,360.0,-380.0" stroke="navy" stroke-width="4" fill="none" />
</svg>